<?xml version="1.0" encoding="UTF-8"?>
<svg id="Layer_1" xmlns="http://www.w3.org/2000/svg" version="1.1" viewBox="0 0 1080 1080">
  <!-- Generator: Adobe Illustrator 29.8.1, SVG Export Plug-In . SVG Version: 2.1.1 Build 2)  -->
  <defs>
    <style>
      .st0, .st1 {
        fill: #212120;
      }

      .st1 {
        font-family: BOLeD, BOLeD;
        font-size: 104.25px;
      }
    </style>
  </defs>
  <text class="st1" transform="translate(368.82 650.41)"><tspan x="0" y="0">STUDIOS</tspan></text>
  <g>
    <path class="st0" d="M430.54,408.31c17.15,0,31.83,6.06,44.02,18.18,12.19,12.12,18.29,26.76,18.29,43.92v83.15h-36.37v-83.15c0-7.09-2.55-13.15-7.66-18.18-5.1-5.03-11.2-7.55-18.29-7.55h-19.78c3.68,7.94,5.53,16.52,5.53,25.73v83.15h-36.37v-83.15c0-7.09-2.52-13.15-7.55-18.18-5.04-5.03-11.1-7.55-18.18-7.55h-14.25v108.89h-36.37v-145.25h126.96Z"/>
    <path class="st0" d="M638.55,408.31v145.25h-36.37v-5.53c-8.08,3.69-16.73,5.53-25.95,5.53h-8.72c-17.16,0-31.83-6.06-44.02-18.18-12.2-12.12-18.29-26.76-18.29-43.92v-21.05c0-17.15,6.09-31.79,18.29-43.92,12.19-12.12,26.87-18.18,44.02-18.18h71.03ZM576.24,517.2c7.23,0,13.36-2.51,18.4-7.55,5.03-5.03,7.55-11.09,7.55-18.18v-46.79h-34.66c-7.23,0-13.37,2.52-18.4,7.55-5.03,5.03-7.55,11.1-7.55,18.18v21.05c0,7.09,2.52,13.15,7.55,18.18,5.03,5.04,11.17,7.55,18.4,7.55h8.72Z"/>
    <path class="st0" d="M650.9,444.68v-36.37h133.34v43.6l-85.07,65.29h85.07v36.37h-133.34v-43.81l85.07-65.08h-85.07Z"/>
    <path class="st0" d="M859.8,408.31c17.15,0,31.83,6.06,44.02,18.18,12.19,12.12,18.29,26.76,18.29,43.92v28.71h-87.88c4.82,12.05,13.04,18.08,24.67,18.08h44.92v36.37h-44.92c-17.16,0-31.83-6.06-44.02-18.18-12.2-12.12-18.29-26.76-18.29-43.92v-21.05c0-17.15,6.09-31.79,18.29-43.92,12.19-12.12,26.87-18.18,44.02-18.18h.9ZM858.91,444.68c-11.63,0-19.85,6.03-24.67,18.08h50.24c-4.82-12.05-13.05-18.08-24.67-18.08h-.9Z"/>
    <g>
      <path class="st0" d="M254.86,491.47c0,7.09-2.52,13.15-7.55,18.18-5.03,5.03-11.17,7.55-18.4,7.55h-8.72c-7.23,0-13.37-2.52-18.39-7.55-2.34-2.34-4.11-4.91-5.36-7.69l-29.89,21.2c2.63,4.31,5.79,8.41,9.63,12.22,12.19,12.12,26.87,18.18,44.02,18.18h8.72c9.22,0,17.86-1.84,25.95-5.53v5.53h36.37v-118.84l-36.37,25.79v30.95Z"/>
      <polygon class="st0" points="291.23 423.53 291.23 408.32 267.93 408.32 255.61 422.57 291.23 423.53"/>
      <path class="st0" d="M194.25,491.47v-21.05c0-7.09,2.52-13.15,7.55-18.18,5.03-5.03,11.16-7.55,18.39-7.55h28.31l12.92-11.73-39.17-.04,33.31-24.6h-35.37c-17.16,0-31.83,6.06-44.02,18.18-12.19,12.12-18.29,26.76-18.29,43.92v21.05c0,10.66,2.36,20.35,7.07,29.06l29.4-26.69c-.06-.78-.11-1.57-.11-2.37Z"/>
    </g>
  </g>
</svg>